# xmcd
#
# Track frame offsets:
#       150
#       15240
#       30546
#       50904
#       65812
#       80901
#       97390
#       116502
#       135284
#       150918
#       166064
#       179588
#       194953
#       208428
#       221933
#       240541
#       254420
#       270909
#       283345
#       298938
#       313201
#       333112
#
# Disc length: 4643 seconds
#
# Revision: 0
# Processed by: cddbd v1.5.2PL0 Copyright (c) Steve Scherf et al.
# Submitted via: WaveLab 4.01
#
DISCID=60122116
DTITLE=Pete Benz - Pete Complete
DYEAR=2007
DGENRE=
TTITLE0=Good Luck
TTITLE1=You Make Me Look Good
TTITLE2=Take Me I'm Yours
TTITLE3=The One She Is To Me
TTITLE4=Mexico Moon
TTITLE5=Back And Forth To Ft.Worth
TTITLE6="Til She's Done Hurting Me
TTITLE7=Saving Myself
TTITLE8=Hold Your Horses
TTITLE9=Usually
TTITLE10=I Don't Wanna Dance This Song
TTITLE11=Don't Even Think About It
TTITLE12=You're Right, I Left
TTITLE13=Fuel To The Fire
TTITLE14=Halfway There
TTITLE15=You're Losing Me
TTITLE16=Miracle
TTITLE17=Down Near Mexico
TTITLE18=I See What You're Saying
TTITLE19=Too Bad I Haven't Met You Yet
TTITLE20=Hang On Cowboy
TTITLE21=Surprize
EXTD=
EXTT0=
EXTT1=
EXTT2=
EXTT3=
EXTT4=
EXTT5=
EXTT6=
EXTT7=
EXTT8=
EXTT9=
EXTT10=
EXTT11=
EXTT12=
EXTT13=
EXTT14=
EXTT15=
EXTT16=
EXTT17=
EXTT18=
EXTT19=
EXTT20=
EXTT21=
PLAYORDER=
